<?xml version="1.0" standalone="no"?><!DOCTYPE svg PUBLIC "-//W3C//DTD SVG 1.1//EN" "http://www.w3.org/Graphics/SVG/1.1/DTD/svg11.dtd"><svg t="1525312134731" class="icon" style="" viewBox="0 0 1024 1024" version="1.1" xmlns="http://www.w3.org/2000/svg" p-id="5087" xmlns:xlink="http://www.w3.org/1999/xlink" width="200" height="200"><defs><style type="text/css"></style></defs><path d="M310.8864 877.6704c-19.7632 0-36.5568-6.8608-50.2784-20.5824L20.5824 617.1648C6.8608 603.4432 0 586.6496 0 566.8864c0-21.2992 6.8608-38.912 20.5824-52.5312l475.4432-491.4176C509.7472 7.68 527.2576 0 548.5568 0l256 0c21.2992 0 38.8096 6.8608 52.5312 20.5824 13.7216 13.7216 20.5824 31.232 20.5824 52.5312l0 256c0 21.4016-6.8608 38.8096-20.5824 52.5312L363.4176 857.088C349.696 870.8096 332.1856 877.6704 310.8864 877.6704zM548.5568 36.5568c-10.6496 0-19.7632 3.7888-27.4432 11.4688L48.0256 539.4432C40.3456 547.1232 36.5568 556.2368 36.5568 566.8864c0 9.1136 3.7888 17.5104 11.4688 25.1904L285.696 829.7472c16.7936 16.7936 34.304 16.7936 52.5312 0l491.4176-473.1904c7.5776-7.5776 11.4688-16.7936 11.4688-27.4432l0-256c0-24.3712-12.1856-36.5568-36.5568-36.5568L548.5568 36.5568zM459.4688 950.8864c-21.2992 0-38.8096-6.8608-52.5312-20.5824L388.608 907.4688C379.392 898.2528 380.2112 889.9584 390.8608 882.2784c9.1136-9.1136 17.5104-8.2944 25.1904 2.2528l18.3296 20.5824c16.7936 16.7936 33.4848 15.9744 50.2784-2.2528l491.4176-473.1904c7.5776-7.5776 11.4688-16.7936 11.4688-27.4432l0-256c0-24.3712-12.1856-36.5568-36.5568-36.5568L932.5568 109.6704c-12.1856 0-18.3296-6.0416-18.3296-18.3296 0-12.1856 6.144-18.3296 18.3296-18.3296l18.3296 0c21.2992 0 38.8096 6.8608 52.5312 20.5824C1017.1392 107.4176 1024 124.928 1024 146.3296l0 256c0 19.7632-6.8608 38.0928-20.5824 54.8864l-493.6704 473.088C499.0976 944.0256 482.304 950.8864 459.4688 950.8864zM740.5568 265.1136C722.3296 283.4432 700.928 292.5568 676.5568 292.5568S630.8864 283.4432 612.5568 265.1136C594.3296 246.8864 585.1136 225.4848 585.1136 201.1136c0-24.3712 9.1136-45.6704 27.4432-64 18.3296-18.3296 39.6288-27.4432 64-27.4432s45.6704 9.1136 64 27.4432C758.8864 155.4432 768 176.8448 768 201.1136 768 225.4848 758.8864 246.8864 740.5568 265.1136zM715.4688 162.304C704.7168 151.6544 691.8144 146.3296 676.5568 146.3296c-15.2576 0-28.16 5.3248-38.8096 15.9744-10.6496 10.6496-15.9744 23.6544-15.9744 38.912 0 15.2576 5.3248 28.2624 15.9744 38.8096C648.3968 250.6752 661.2992 256 676.5568 256c15.2576 0 28.16-5.3248 38.8096-15.9744C726.1184 229.376 731.4432 216.3712 731.4432 201.1136 731.4432 185.9584 726.1184 172.9536 715.4688 162.304z" p-id="5088"></path></svg>